<svg width="360" height="200" viewBox="0 0 360 200" fill="none" xmlns="http://www.w3.org/2000/svg">
<path fill-rule="evenodd" clip-rule="evenodd" d="M161.264 72.1788C162.645 62.8824 170.615 56 180 56C189.386 56 197.356 62.8824 198.736 72.1788L200.31 82.7769L194.816 83.5951L193.242 72.997C192.267 66.4266 186.633 61.5624 180 61.5624C173.367 61.5624 167.734 66.4266 166.758 72.997L165.216 83.3809C165.008 84.7798 166.091 86.0367 167.503 86.0367H193.076C197.581 86.0367 201.177 89.7462 201.177 94.1948C201.177 98.6434 197.581 102.353 193.076 102.353H166.924C162.419 102.353 158.824 98.6434 158.824 94.1948H164.378C164.378 95.6342 165.549 96.7906 166.924 96.7906H193.076C194.451 96.7906 195.622 95.6342 195.622 94.1948C195.622 92.7554 194.451 91.5991 193.076 91.5991H167.503C162.698 91.5991 159.015 87.3225 159.722 82.5628L161.264 72.1788Z" fill="#6AF3B4"/>
<path d="M121.173 141.939H116V151.42H120.043L120.739 148.823C122.869 151.031 126.086 151.853 128.868 151.853C134.39 151.853 138.694 148.996 138.694 143.281C138.694 137.523 135.042 135.055 127.868 133.8C123.651 133.064 121.608 132.025 121.608 129.167C121.608 126.483 123.651 125.141 127.086 125.141C130.955 125.141 133.259 126.959 133.303 130.596H138.433V121.115H134.433L133.737 123.712C131.694 121.548 128.564 120.682 125.869 120.682C120.347 120.682 116.304 123.496 116.304 129.124C116.304 134.839 119.695 137.393 126.869 138.605C131.39 139.385 133.39 140.251 133.39 143.195C133.39 146.009 131.042 147.351 127.608 147.351C123.782 147.351 121.217 145.576 121.173 141.939Z" fill="#6AF3B4"/>
<path d="M151.348 133.28H157.608V129.124H151.348V120.985L146.522 122.413V129.124H142.609V133.28H146.522V143.324C146.522 149.516 148.435 152.892 157.608 151.42V147.437C152.608 147.957 151.348 147.264 151.348 143.584V133.28Z" fill="#6AF3B4"/>
<path d="M162.185 133.28H166.01V147.264H162.185V151.42H174.618V147.264H170.836V137.004C170.836 134.146 173.792 132.501 178.966 133.28V128.951C175.618 128.215 172.401 129.297 170.445 131.722L169.706 129.124H162.185V133.28Z" fill="#6AF3B4"/>
<path d="M185.772 125.314H190.598V119.772H185.772V125.314ZM190.598 129.124H181.947V133.28H185.772V147.264H181.947V151.42H194.38V147.264H190.598V129.124Z" fill="#6AF3B4"/>
<path d="M196.786 123.539H200.611V151.42H204.307L204.959 149.126C206.437 150.944 208.611 151.853 211.436 151.853C216.479 151.853 219.653 148.866 219.653 143.238V137.307C219.653 131.678 216.479 128.691 211.48 128.691C208.958 128.691 206.872 129.514 205.437 130.986V119.383H196.786V123.539ZM214.827 143.541C214.827 146.268 213.045 147.697 210.176 147.697C207.35 147.697 205.437 146.225 205.437 143.454V137.09C205.437 134.319 207.35 132.847 210.219 132.847C213.045 132.847 214.827 134.276 214.827 137.004V143.541Z" fill="#6AF3B4"/>
<path d="M244 137.307C244 131.592 240.261 128.691 234.523 128.691C228.741 128.691 224.958 131.592 224.958 137.307V143.238C224.958 148.953 228.741 151.853 234.479 151.853C240.261 151.853 244 148.953 244 143.238V137.307ZM239.174 143.541C239.174 146.355 237.348 147.697 234.479 147.697C231.697 147.697 229.827 146.355 229.827 143.541V137.004C229.827 134.189 231.697 132.847 234.523 132.847C237.348 132.847 239.174 134.189 239.174 137.004V143.541Z" fill="#6AF3B4"/>
</svg>
